<svg xmlns="http://www.w3.org/2000/svg" width="512" height="512" viewBox="0 0 512 512" version="1.1">
	<path d="M 275.496 12.250 C 275.254 12.938, 272.998 19.347, 270.484 26.494 C 267.969 33.641, 265.511 39.889, 265.021 40.379 C 264.499 40.901, 259.403 39.358, 252.731 36.657 C 235.359 29.626, 230.644 28.673, 216 29.231 C 205.428 29.633, 202.075 30.188, 194.263 32.830 C 177.740 38.417, 167.651 44.552, 156.758 55.638 C 136.417 76.340, 131.191 96.520, 137.500 130 C 140.167 144.156, 140.675 155.995, 138.893 162.500 C 138.291 164.700, 135.849 171, 133.466 176.500 C 125.322 195.304, 125.226 204.865, 132.954 228.051 C 135.621 236.055, 138.344 246.170, 139.005 250.531 C 141.007 263.741, 138.612 275.696, 131.854 286.228 C 123.401 299.400, 111.292 300.763, 99.476 289.871 C 92.183 283.148, 88.448 273.839, 91.044 268.855 L 92.271 266.500 89.540 269 C 84.386 273.717, 87.038 282.173, 99.889 302 C 107.927 314.400, 114.259 326.792, 117.007 335.500 C 119.741 344.162, 120.047 355.106, 117.681 359.662 C 114.311 366.154, 107.201 369.513, 98.378 368.781 C 91.230 368.189, 86.308 364.313, 83.326 356.930 C 81.288 351.886, 81.110 351.715, 80.485 354.205 C 79.628 357.619, 82.263 366.763, 86.334 374.500 C 90.955 383.282, 103.821 395.935, 112 399.741 C 125.102 405.837, 139.499 407.068, 150.500 403.031 C 159.246 399.821, 159.291 399.832, 160.727 405.500 C 163.458 416.274, 164.259 428.346, 163.514 447.500 C 163.108 457.950, 162.713 468.750, 162.638 471.500 L 162.500 476.500 167.500 478.997 C 173.424 481.956, 184.759 482.817, 195.588 481.131 C 203.212 479.944, 204.410 480.545, 203.575 485.138 C 202.940 488.628, 205.370 490.739, 212.149 492.585 C 225.323 496.172, 251.131 496.110, 256.674 492.478 C 258.973 490.972, 259.181 490.336, 258.649 486.456 C 258.136 482.712, 258.328 482.031, 260.050 481.484 C 263.021 480.541, 267.635 481.712, 276 485.532 C 280.125 487.416, 285.924 489.417, 288.886 489.979 C 295.941 491.316, 312.461 491.277, 317.379 489.912 L 321.259 488.834 320.677 483.924 C 320.007 478.267, 319.672 478.462, 331.500 477.639 C 338.943 477.121, 346.414 474.475, 349.181 471.377 C 350.760 469.609, 350.716 468.936, 348.454 460.229 C 347.131 455.132, 345.291 445.458, 344.366 438.731 C 342.231 423.203, 343.425 408.975, 348.624 387.986 C 353.415 368.646, 354.263 352.433, 351.132 340.051 L 349.038 331.770 369.402 311.635 C 390.766 290.511, 400.620 278.439, 412.821 258.443 C 429.661 230.844, 440.161 199.818, 441.907 172.500 C 444.773 127.664, 432.654 92.266, 405.102 64.997 C 394.236 54.242, 384.495 47.205, 371.457 40.692 C 344.993 27.470, 320.360 25.987, 295.109 36.094 C 291.045 37.721, 287.580 38.913, 287.410 38.744 C 287.240 38.574, 286.155 34.186, 284.999 28.994 C 282.476 17.670, 279.706 11, 277.525 11 C 276.652 11, 275.739 11.563, 275.496 12.250 M 276.305 26.487 C 275.390 28.406, 274.944 30.278, 275.315 30.648 C 276.470 31.804, 280 27.809, 280 25.345 C 280 21.926, 278.217 22.477, 276.305 26.487 M 275.928 35.224 C 271.459 38.633, 268.249 44.602, 269.347 47.462 C 270.253 49.824, 275.086 49.305, 279.382 46.387 C 283.208 43.786, 283.224 43.748, 282.552 38.637 C 282.181 35.811, 281.521 33.139, 281.085 32.697 C 280.650 32.256, 278.330 33.393, 275.928 35.224 M 279.631 49.821 C 277.037 51.569, 274.237 52.490, 271.137 52.613 C 266.804 52.785, 266.405 53.038, 264.783 56.648 C 263.831 58.767, 263.041 61.727, 263.026 63.227 C 262.967 69.369, 274.332 71.771, 281.197 67.067 C 286.727 63.278, 287.264 61.867, 285.905 54.699 C 285.259 51.290, 284.453 48.210, 284.115 47.856 C 283.777 47.502, 281.759 48.386, 279.631 49.821 M 310.250 57.993 C 309.012 58.512, 308 59.608, 308 60.429 C 308 61.250, 307.024 62.831, 305.832 63.942 C 303.668 65.958, 303.668 65.968, 305.582 69.564 C 307.955 74.020, 307.988 74.041, 313.602 74.498 C 317.728 74.834, 318.540 74.527, 321.597 71.469 C 323.469 69.598, 324.993 67.489, 324.985 66.783 C 324.977 66.078, 323.514 63.810, 321.735 61.745 C 318.272 57.727, 314.123 56.371, 310.250 57.993 M 361.199 59.504 C 350.579 61.428, 340.128 66.751, 332.401 74.170 C 322.353 83.819, 318 94.540, 318 109.636 C 318 116.280, 316.683 118.165, 315.650 113 C 315.320 111.350, 314.476 110.003, 313.775 110.006 C 310.059 110.022, 304.181 112.681, 296.027 118.036 C 272.689 133.360, 260.855 136.382, 240.086 132.321 L 231.500 130.642 228.252 124.071 C 226.465 120.457, 223.258 115.497, 221.125 113.049 L 217.246 108.598 213.959 111.549 C 201.722 122.535, 199.754 124.735, 197.071 130.426 C 194.160 136.601, 188.296 159.630, 189.363 160.696 C 189.684 161.018, 191.760 159.642, 193.976 157.640 C 198.872 153.217, 202.132 152.978, 205.916 156.762 C 209.244 160.090, 212.754 169.053, 213.622 176.441 C 214.412 183.159, 212.347 194.653, 209.913 197.087 C 207.056 199.944, 200.411 201.341, 195.526 200.111 C 190.094 198.743, 185.066 200.125, 180.324 204.289 C 173.412 210.358, 172.265 218.205, 176.587 229.864 C 180.932 241.587, 187.252 247.118, 200.256 250.580 C 206.439 252.226, 216.007 252.403, 221.177 250.967 C 226.810 249.403, 234.132 243.946, 236.308 239.692 C 237.760 236.854, 238.669 236.065, 239.878 236.595 C 240.770 236.986, 243.557 238.040, 246.071 238.939 C 251.440 240.857, 251.491 243, 246.167 243 C 242.995 243.001, 241.903 243.694, 238.080 248.134 C 231.546 255.720, 225.038 258.432, 213.500 258.373 C 206.717 258.339, 203.145 257.795, 199 256.164 C 195.975 254.974, 193.217 254.001, 192.871 254.001 C 192.526 254, 191.683 255.350, 191 257.001 C 189.985 259.452, 190.008 260.306, 191.128 261.663 C 193.118 264.072, 201.764 267.667, 212.837 270.689 C 221.074 272.937, 224.492 273.324, 236 273.311 C 257.523 273.287, 279.588 267.406, 304.500 255.053 C 324.818 244.977, 334.630 236.295, 343.380 220.649 C 351.421 206.269, 356.428 182.208, 354.282 168.249 L 353.322 161.997 358.433 158.138 C 368.654 150.421, 380.475 133.657, 384.268 121.500 C 388.298 108.581, 386.836 83.630, 380.928 64.502 L 378.920 58 373.710 58.090 C 370.844 58.140, 365.214 58.776, 361.199 59.504 M 173.001 66.114 C 173.003 84.750, 176.118 102.391, 181.154 112.291 C 183.237 116.386, 190.531 124, 192.371 124 C 193.907 124, 199 117.489, 199 115.525 C 199 114.655, 197.652 111.273, 196.005 108.010 C 192.621 101.307, 187.263 83.540, 186.804 77.500 L 186.500 73.500 190.135 73.707 C 192.134 73.820, 198.800 75.540, 204.948 77.527 L 216.126 81.141 219.697 78.321 C 221.662 76.769, 224.221 74.705, 225.384 73.733 L 227.500 71.966 224.500 69.470 C 216.395 62.729, 206.587 60.012, 187.750 59.292 L 173 58.728 173.001 66.114 M 283.089 69.874 C 278.632 72.860, 276.780 73.499, 272.589 73.497 C 269.779 73.495, 266.024 72.735, 264.205 71.801 C 260.937 70.122, 260.901 70.129, 259.955 72.619 C 259.430 74, 259 76.477, 259 78.124 C 259 79.774, 258.571 80.853, 258.044 80.527 C 256.431 79.530, 254.247 84.204, 253.546 90.152 C 252.941 95.294, 253.086 95.947, 255.163 97.402 C 258.060 99.431, 264.219 99.455, 268.092 97.452 C 269.738 96.601, 274.103 93.980, 277.792 91.627 C 281.482 89.274, 286.075 86.743, 288 86.002 C 289.925 85.261, 291.637 84.558, 291.803 84.441 C 292.077 84.247, 289.011 66.674, 288.651 66.374 C 288.568 66.305, 286.065 67.880, 283.089 69.874 M 362 78.661 C 351.622 84.754, 343.230 92.804, 339.231 100.500 C 335.822 107.062, 334.754 122.450, 337.425 126.526 C 339.882 130.276, 341 128.679, 341 121.416 C 341 109.240, 346.602 98.684, 358.212 88.983 C 362.771 85.173, 364.521 84.216, 365.140 85.193 C 366.550 87.416, 366.109 107.161, 364.513 113.289 C 363.695 116.430, 361.445 122.138, 359.513 125.974 C 357.581 129.811, 356 133.411, 356 133.975 C 356 135.887, 358.615 135.012, 361.154 132.250 C 367.750 125.074, 371.999 112.891, 372.002 101.145 C 372.004 91.891, 369.250 75.996, 367.646 76.009 C 367.016 76.015, 364.475 77.208, 362 78.661 M 192 79.474 C 192 81.278, 201.547 109.410, 202.665 110.899 C 202.829 111.118, 204.791 110.031, 207.025 108.483 C 209.901 106.490, 210.892 105.205, 210.420 104.084 C 207.715 97.653, 207.617 96.946, 208.710 91.787 C 209.674 87.240, 209.606 86.325, 208.225 85.251 C 205.644 83.243, 192 78.384, 192 79.474 M 391.704 109.191 L 391.113 117.500 395.877 126 C 406.296 144.595, 409.020 155.204, 409.865 180.489 C 410.436 197.564, 410.678 199.511, 412.269 199.816 C 414.544 200.251, 416.314 196.084, 418.559 185.004 C 420.776 174.063, 420.075 152.010, 417.169 141.276 C 413.481 127.657, 405.401 113.531, 396.241 104.691 L 392.294 100.881 391.704 109.191 M 291.500 151.338 C 285.311 154.342, 278.740 161.039, 276.095 167.038 C 269.785 181.348, 272.935 203.279, 282.328 210.433 C 288.961 215.486, 301.625 216.293, 309.622 212.173 C 320.098 206.776, 327 193.318, 327 178.290 L 327 172 331.818 172 C 337.900 172, 347 169.354, 347 167.586 C 347 166.615, 345.291 166.246, 340.750 166.235 C 337.192 166.226, 332.669 165.479, 330.250 164.501 C 326.053 162.804, 324.618 161, 327.465 161 C 329.683 161, 336 155.046, 336 152.955 C 336 150.466, 334.490 149.704, 333.035 151.458 C 332.379 152.248, 329.846 153.657, 327.406 154.589 L 322.969 156.284 316.334 152.916 C 307.353 148.357, 298.765 147.812, 291.500 151.338 M 388.008 157.491 C 387.025 158.675, 387.027 161.719, 388.018 172.305 C 389.502 188.152, 388.604 198.054, 383.967 216.999 C 380.624 230.656, 380.720 233.641, 384.528 234.596 C 388.033 235.476, 389.802 233.668, 393.726 225.198 C 402.597 206.049, 403.820 185.323, 397.307 164.500 C 394.847 156.637, 391.076 153.794, 388.008 157.491 M 300.110 166.396 C 298.796 167.124, 297.124 168.796, 296.396 170.110 C 293.561 175.223, 295.495 185.825, 299.545 187.379 C 300.435 187.720, 302.702 188, 304.582 188 C 307.536 188, 308 188.330, 308 190.433 C 308 195.218, 314.237 194.620, 317.583 189.514 C 319.339 186.834, 318.692 183, 316.484 183 C 315.321 183, 315.332 182.450, 316.551 179.532 C 318.725 174.329, 318.341 172.141, 314.600 168.400 C 311.756 165.556, 310.488 165.006, 306.850 165.035 C 304.457 165.055, 301.425 165.667, 300.110 166.396 M 173.194 168.362 C 168.945 169.273, 168.139 169.749, 169.144 170.750 C 170.894 172.492, 175.546 172.311, 177.429 170.429 C 178.711 169.146, 179.689 166.691, 178.750 167.112 C 178.613 167.174, 176.112 167.736, 173.194 168.362 M 198.557 174.223 C 196.412 177.285, 196.607 181.607, 199 184 C 201.700 186.700, 203.448 186.517, 206.006 183.266 C 208.249 180.413, 208.192 176.141, 205.872 173.345 C 204.159 171.282, 200.292 171.746, 198.557 174.223 M 178.035 211.934 C 175.018 217.573, 178.856 222.911, 182.862 218.647 C 185.523 215.815, 185.614 212.399, 183.066 211.035 C 180.290 209.550, 179.208 209.743, 178.035 211.934 M 208.655 211.829 C 205.467 215.352, 207.599 221, 212.117 221 C 214.424 221, 219 216.756, 219 214.617 C 219 210.376, 211.740 208.420, 208.655 211.829 M 369.266 250.783 C 360.379 262.026, 356.155 266.431, 345.999 275.046 C 335.579 283.885, 331.873 288.207, 333.402 289.736 C 333.809 290.142, 335.593 289.580, 337.367 288.487 C 339.141 287.394, 346.543 282.950, 353.816 278.611 C 365.136 271.857, 367.698 269.846, 371.614 264.637 C 376.178 258.565, 380 251.945, 380 250.111 C 380 248.474, 376.962 246, 374.952 246 C 373.871 246, 371.411 248.069, 369.266 250.783 M 387.380 255.761 C 382.496 261.129, 375.930 267.766, 372.789 270.511 L 367.077 275.500 367.039 282.250 C 367.017 285.962, 367.421 289, 367.935 289 C 368.450 289, 371.404 286.376, 374.500 283.170 C 388.693 268.470, 402.338 246, 397.071 246 C 396.626 246, 392.265 250.392, 387.380 255.761 M 302 263.156 C 289.403 269.529, 267.909 276.486, 254.810 278.431 C 248.998 279.294, 243.801 280, 243.260 280 C 242.719 280, 241.981 282.877, 241.621 286.392 C 240.869 293.731, 238.254 301.925, 234.408 308.992 C 228.780 319.333, 224.608 320.806, 207.366 318.545 C 193.270 316.697, 188.451 317.516, 179.924 323.209 C 173.214 327.690, 167.650 334.437, 163.189 343.500 C 159.371 351.257, 157.992 358.030, 158.035 368.799 C 158.074 378.472, 159.093 383.770, 164.394 401.856 C 168.871 417.134, 170.304 429.250, 169.851 448 L 169.500 462.500 174 464.818 C 177.706 466.727, 179.454 467.031, 183.906 466.541 C 190.500 465.815, 195.716 463.471, 196.544 460.862 C 196.883 459.792, 196.614 453.961, 195.945 447.904 C 194.425 434.142, 195.160 421.562, 198.009 412.544 L 200.208 405.588 196.354 402.561 C 191.920 399.078, 186.496 393.538, 184.250 390.199 C 183.111 388.505, 182.997 387.603, 183.819 386.781 C 184.640 385.960, 186.197 386.843, 189.717 390.124 C 196.066 396.043, 203.041 400.750, 208.115 402.540 C 215.603 405.182, 215.732 405.070, 216.540 395.250 C 216.936 390.438, 217.670 385.410, 218.171 384.077 C 219.009 381.848, 219.212 381.783, 220.694 383.265 C 222.176 384.748, 222.168 386.723, 220.596 407.861 C 218.999 429.344, 217.990 435.872, 212.493 460.312 C 211.102 466.495, 211.108 467.373, 212.553 469.812 C 213.429 471.290, 215.998 473.827, 218.261 475.450 C 226.736 481.525, 239.142 479.526, 247.818 470.686 L 251.938 466.488 252.303 441.994 C 252.622 420.629, 252.949 416.478, 254.857 409.500 C 258.881 394.790, 265.702 383, 270.187 383 C 271.184 383, 272 383.235, 272 383.523 C 272 383.811, 269.983 387.523, 267.519 391.773 C 265.054 396.023, 262.761 400.893, 262.424 402.595 L 261.812 405.691 267.156 404.952 C 280.533 403.102, 294.975 393.991, 303.140 382.250 C 305.982 378.164, 309 376.626, 309 379.265 C 309 384.129, 299.004 395.975, 290 401.781 C 286.975 403.732, 284.169 405.817, 283.765 406.414 C 283.361 407.011, 283.015 411.550, 282.996 416.500 C 282.956 426.685, 282.040 434.350, 278.847 451.237 L 276.627 462.974 278.983 465.482 C 280.279 466.862, 283.786 469.675, 286.775 471.734 C 291.562 475.031, 292.893 475.468, 297.928 475.400 C 304.178 475.315, 309.587 472.877, 310.599 469.689 C 310.926 468.656, 310.636 462.467, 309.952 455.935 C 308.416 441.248, 309.194 425.871, 311.964 416.156 C 313.116 412.118, 316.492 402.392, 319.466 394.545 C 326.887 374.963, 328.252 369.263, 328.216 358 C 328.183 347.692, 326.516 338.008, 322.622 325.500 C 312.034 291.486, 312.769 294.953, 312.109 275.925 L 311.500 258.351 302 263.156 M 160.299 282.250 C 155.190 287.859, 154.932 290.714, 159.104 295.465 C 161.744 298.473, 162.843 299, 166.468 299 C 170.281 299, 171.008 298.597, 173.394 295.153 L 176.060 291.306 174.060 286.640 C 171.179 279.919, 164.394 277.755, 160.299 282.250 M 337.883 338.790 L 333.266 342.500 333.770 352.623 C 334.421 365.694, 333.082 372.722, 326.267 392 C 315.585 422.217, 314.465 427.729, 315.312 445.941 C 315.995 460.616, 316.531 463, 319.149 463 C 324.923 463, 332.743 457.302, 336.202 450.574 C 338.029 447.020, 338.157 445.504, 337.548 434.574 C 336.693 419.220, 337.992 407.918, 343.022 386.959 C 347.551 368.090, 348.823 355.378, 347.071 346.500 C 345.754 339.828, 344.086 334.979, 343.129 335.040 C 342.783 335.063, 340.422 336.750, 337.883 338.790 M 138.692 344.519 C 134.526 349.392, 134.539 349.521, 139.779 355.435 C 142.976 359.043, 143.151 359.106, 146.779 357.942 C 152.066 356.245, 154 354.219, 154 350.380 C 154 348.103, 153.031 345.966, 150.896 343.535 C 146.551 338.586, 143.559 338.827, 138.692 344.519" stroke="none" fill="black" fill-rule="evenodd"/>
</svg>